<svg width="159" height="31" viewBox="0 0 159 31" fill="none" xmlns="http://www.w3.org/2000/svg">
  <g clip-path="url(#a)">
    <path d="M48.91 16.73c1.355-.015 2.02.584 2.02 1.402 0 .354-.14.756-.402 1.172a11.5 11.5 0 0 1-2.45 2.681 1.08 1.08 0 0 1-.645.249.84.84 0 0 1-.833-.848c0-.263.124-.54.431-.785a7.9 7.9 0 0 0 1.617-1.713.5.5 0 0 0 .11-.278c0-.124-.11-.186-.355-.186l-8.752.062c-.54 0-.818-.416-.818-.847s.277-.848.818-.848zm-5.113 3.608c0-.508.445-.77.894-.77.45 0 .895.262.895.77v.723c0 3.284-1.45 5.72-4.066 7.31a1.14 1.14 0 0 1-.585.185.88.88 0 0 1-.894-.862c0-.292.168-.602.57-.847 2.11-1.279 3.19-3.083 3.19-5.782v-.723zm13.535 3.082c0 .508-.446.757-.895.757s-.894-.248-.894-.756V20.74H53.17c-.463 0-.708-.387-.708-.771s.249-.77.708-.77h2.373V16.67c0-.526.445-.771.894-.771.45 0 .895.248.895.77v2.528h3.482v-2.743c0-.508.445-.756.894-.756s.894.248.894.756v2.743H65.3c.478 0 .708.387.708.771 0 .383-.23.77-.708.77h-2.698v.48c0 3.747-1.708 6.212-4.515 7.476a1 1 0 0 1-.416.091.86.86 0 0 1-.861-.862c0-.306.153-.617.57-.818 2.28-1.096 3.434-2.805 3.434-6.012v-.354h-3.482zm13.063-2.468c2.004-.556 4.052-1.388 5.592-2.313a1 1 0 0 1 .522-.153c.508 0 .894.416.894.88 0 .263-.138.556-.492.756-1.85 1.096-4.223 1.973-6.52 2.513v2.7c0 .88.479 1.11 2.326 1.11 1.65 0 3.234-.124 4.53-.416.076-.015.153-.03.23-.03.54 0 .86.446.86.88 0 .355-.214.71-.707.819-1.416.307-3.143.416-4.822.416-3.205 0-4.238-.617-4.238-2.527V16.75c0-.508.464-.77.91-.77.444 0 .908.262.908.77v4.208zm14.484 2.468c0 .508-.445.757-.894.757-.45 0-.895-.248-.895-.756V20.74h-2.372c-.464 0-.708-.387-.708-.771s.248-.77.708-.77h2.372V16.67c0-.526.446-.771.895-.771s.894.248.894.77v2.528h3.482v-2.743c0-.508.445-.756.894-.756.45 0 .895.248.895.756v2.743h2.697c.478 0 .708.387.708.771 0 .383-.23.77-.708.77H90.15v.48c0 3.747-1.709 6.212-4.516 7.476a1 1 0 0 1-.416.091.86.86 0 0 1-.861-.862c0-.306.153-.617.57-.818 2.28-1.096 3.434-2.805 3.434-6.012v-.354H84.88zm14.118-4.364c.201.2.278.43.278.665 0 .522-.464 1.019-.986 1.019a.98.98 0 0 1-.693-.307 23 23 0 0 0-2.096-1.867c-.262-.2-.368-.445-.368-.694 0-.478.445-.938.985-.938.201 0 .402.062.617.2a14 14 0 0 1 2.263 1.93zm6.778-.446c.479 0 .939.34.939.848a.93.93 0 0 1-.154.493c-2.186 3.868-5.701 6.662-9.523 8.109a1.1 1.1 0 0 1-.416.076c-.555 0-.923-.478-.923-.938 0-.34.168-.662.602-.819 3.497-1.326 6.84-3.992 8.691-7.294a.88.88 0 0 1 .784-.478zm10.793-.741c1.278-.015 1.928.493 1.928 1.417 0 .248-.048.526-.139.818-1.062 3.594-3.697 6.845-7.056 8.726a1.2 1.2 0 0 1-.507.14.88.88 0 0 1-.88-.881c0-.292.168-.617.541-.833 3.066-1.804 5.113-4.394 6.055-7.323a.7.7 0 0 0 .048-.216c0-.172-.125-.248-.417-.248l-3.449.029c-.755 1.11-1.631 2.144-2.511 2.93-.23.215-.478.291-.708.291-.464 0-.862-.354-.862-.818 0-.23.124-.493.387-.741 1.464-1.326 2.913-3.408 3.712-5.304.168-.402.508-.584.847-.584.464 0 .909.325.909.818 0 .11-.029.23-.077.354-.2.479-.43.957-.693 1.45l2.88-.029zm7.626 5.121c0 .522-.464.803-.924.803s-.923-.277-.923-.803v-6.06c0-.54.463-.818.923-.818s.924.277.924.818zm4.066-6.323c0-.526.463-.785.938-.785.445 0 .909.263.909.785v4.58c0 3.901-1.665 6.261-4.64 7.678a1.15 1.15 0 0 1-.463.124.92.92 0 0 1-.909-.909c0-.292.168-.603.569-.804 2.574-1.263 3.592-3.13 3.592-6.213v-4.456zm17.028 4.639c.554 0 .832.43.832.88s-.278.88-.832.88h-11.246c-.555 0-.833-.445-.833-.88 0-.434.278-.88.833-.88zm5.347-2.25c.201.2.277.43.277.665 0 .522-.463 1.019-.985 1.019a.98.98 0 0 1-.694-.307 23 23 0 0 0-2.095-1.867c-.263-.2-.368-.445-.368-.694 0-.478.445-.938.985-.938.201 0 .402.062.617.2.708.48 1.54 1.158 2.263 1.93zm6.778-.446c.478 0 .938.34.938.848a.93.93 0 0 1-.153.493c-2.186 3.868-5.701 6.662-9.523 8.109a1.1 1.1 0 0 1-.416.076c-.555 0-.924-.478-.924-.938 0-.34.168-.662.603-.819 3.496-1.326 6.84-3.992 8.69-7.294a.88.88 0 0 1 .785-.478zM39.49 3.645c.328 0 .642.201.62.592-.021.329-.043.58-.043.96 0 3.694.748 4.665 1.193 4.665.252 0 .475-.168.687-.96.072-.318.306-.453.536-.453.307 0 .602.222.602.57 0 .061 0 .116-.022.178-.39 1.414-1.065 1.933-1.774 1.933-1.529 0-2.456-1.889-2.456-5.9 0-.485.022-.803.044-1.077.033-.34.328-.508.613-.508m7.953 4.475c.022.084.044.157.044.223 0 .347-.295.559-.591.559a.58.58 0 0 1-.558-.402c-.38-.972-1.066-2.079-1.825-2.871a.55.55 0 0 1-.18-.391c0-.296.285-.537.603-.537.146 0 .318.062.464.2.886.823 1.686 2.145 2.047 3.219zm6.593-3.748c1.887 0 3.164 1.012 3.164 2.63 0 2.016-1.496 3.43-4.398 3.843-.442.073-.708-.252-.708-.592 0-.252.168-.519.53-.58 2.466-.425 3.332-1.28 3.332-2.67 0-.812-.614-1.51-1.92-1.51s-2.997.424-4.884 1.257a.8.8 0 0 1-.307.062.58.58 0 0 1-.591-.58c0-.223.128-.454.43-.581 1.899-.833 3.83-1.279 5.348-1.279zm8.219.095h.073c.413 0 .76-.022 1.088-.05.369-.034.559.262.559.558 0 .263-.146.519-.453.537-.328.044-.642.051-1.172.051h-.295c-.062.497-.15.983-.223 1.48H62c.558 0 1.182-.052 1.657-.14.39-.062.624.242.624.548 0 .252-.139.497-.452.56a10 10 0 0 1-1.836.167h-.296c-.033.37-.044.665-.044.917 0 1.14.475 1.53 1.402 1.53 1.16 0 1.781-.412 1.781-1.457 0-.24-.051-.537-.128-.782a1 1 0 0 1-.022-.157c0-.317.296-.507.603-.507.262 0 .529.138.62.453q.158.493.157.971c0 1.805-1.223 2.681-2.997 2.681-1.646 0-2.628-.844-2.628-2.648 0-.318.011-.654.051-1.066a8 8 0 0 1-1.266-.212.57.57 0 0 1-.442-.57c0-.296.2-.58.537-.58.062 0 .128 0 .19.021a9 9 0 0 0 1.116.2c.063-.496.14-.982.223-1.478a8 8 0 0 1-1.106-.168c-.317-.073-.453-.307-.453-.526 0-.33.263-.643.665-.56.34.074.686.129 1.088.169l.262-1.52c.052-.307.329-.442.603-.442.328 0 .653.212.58.603l-.24 1.414zm5.45 3.525c0-2.407 1.993-4.38 4.895-4.38 2.573 0 4.062 1.615 4.062 3.715 0 1.91-1.128 3.313-2.942 3.894a.7.7 0 0 1-.24.044.593.593 0 0 1-.592-.603c0-.234.128-.464.442-.58 1.496-.538 2.099-1.447 2.099-2.755 0-1.384-.938-2.524-2.54-2.637-.107 1.753-.537 3.335-1.194 4.485-.58 1.023-1.201 1.33-2.015 1.33-1.077 0-1.971-.866-1.971-2.513zm1.216 0c0 .972.38 1.33.759 1.33.328 0 .613-.168.916-.71.536-.938.927-2.3 1.055-3.853-1.573.307-2.73 1.67-2.73 3.23zm16.14-.486c-.128.329-.24.643-.412.95a6.4 6.4 0 0 1-.855 1.29c.749.357 1.49.759 2.183 1.201.201.128.285.307.285.475 0 .285-.241.57-.548.57a.67.67 0 0 1-.34-.117 21 21 0 0 0-2.372-1.374c-1.076.855-2.489 1.385-4.292 1.604-.413.051-.632-.234-.632-.508 0-.24.157-.475.486-.518 1.39-.169 2.49-.527 3.343-1.078-.441-.19-.908-.369-1.361-.519l-.062.095a.58.58 0 0 1-.497.285c-.295 0-.58-.223-.58-.497a.5.5 0 0 1 .095-.285c.347-.53.664-1.044.949-1.581h-2.322c-.262 0-.401-.252-.401-.497s.139-.497.401-.497h2.818c.201-.453.391-.916.58-1.413.085-.223.285-.318.497-.318.285 0 .58.179.58.453 0 .051 0 .095-.021.146-.14.39-.285.77-.442 1.129h4.767c.274 0 .412.24.412.496s-.138.497-.412.497h-1.847zm-3.154-4.781c0-.296.296-.442.592-.442.295 0 .58.146.58.442v.77h2.533c.993 0 1.373.34 1.373 1.078V5.3c0 .307-.296.453-.58.453-.285 0-.592-.15-.592-.453v-.548c0-.223-.095-.318-.39-.318H79.63c-.296 0-.39.095-.39.318v.603c0 .307-.296.464-.581.464s-.592-.157-.592-.464v-.782c0-.738.38-1.077 1.373-1.077h2.467zm-.219 4.781c-.211.391-.412.782-.631 1.173.58.168 1.15.38 1.708.613a5 5 0 0 0 1.099-1.782h-2.172zm7.64-1.307c.296 0 .602.2.602.536 0 .044-.01.095-.021.147-.223.876-.559 1.742-.95 2.334-.156.233-.368.34-.569.34-.295 0-.57-.213-.57-.52q.001-.175.129-.368c.346-.537.653-1.308.865-2.079a.51.51 0 0 1 .518-.39zm1.289-.92c0-.34.295-.509.591-.509s.591.168.591.508v4.708c0 .413.15.519 1.223.519 1.446 0 1.697-.157 1.814-1.023.044-.296.285-.43.53-.43.328 0 .653.222.59.602-.251 1.53-.908 1.888-2.89 1.888-2.12 0-2.45-.39-2.45-1.318V5.278m3.215-1.499c.168.158.234.33.234.486a.596.596 0 0 1-.591.592.62.62 0 0 1-.424-.168 10.5 10.5 0 0 0-1.212-.96c-.211-.14-.295-.33-.295-.497a.56.56 0 0 1 .57-.548q.173.001.357.095c.453.24.96.624 1.361 1.004zm3.596 3.77a.75.75 0 0 1 .127.38c0 .336-.295.592-.613.592-.178 0-.368-.095-.507-.307a11 11 0 0 0-1.307-1.626c-.138-.138-.19-.274-.19-.412 0-.296.274-.537.58-.537.14 0 .285.05.424.168a9 9 0 0 1 1.49 1.742zm3.808-1.31c.274-.106.58-.18.909-.18.726 0 1.201.224 1.478 1.005a28 28 0 0 1 2.635-.95.8.8 0 0 1 .212-.032c.347 0 .548.285.548.57a.55.55 0 0 1-.424.536 31 31 0 0 0-2.741.95c.051.39.073.855.095 1.403.011.358-.296.548-.602.548-.274 0-.548-.157-.559-.486-.011-.402-.033-.738-.051-1.023-1.099.559-1.351 1.034-1.351 1.425 0 .412.38.653 1.592.653.664 0 1.361-.062 2.048-.179.423-.073.686.242.686.57 0 .252-.168.508-.529.57-.687.128-1.468.168-2.161.168-1.993 0-2.836-.665-2.836-1.698 0-.844.496-1.659 2.372-2.597-.139-.391-.358-.475-.737-.475-.38 0-1.161.285-2.161 1.088a.63.63 0 0 1-.38.139.58.58 0 0 1-.569-.559c0-.157.073-.318.24-.464a10 10 0 0 0 1.782-2.06c-.412.033-.792.044-1.139.051a.54.54 0 0 1-.58-.548c0-.274.19-.537.58-.537.497 0 1.088-.032 1.698-.073.178-.423.339-.832.463-1.223a.54.54 0 0 1 .537-.38c.295 0 .58.19.58.486 0 .05 0 .106-.022.157-.095.296-.201.57-.317.833a18 18 0 0 0 1.529-.212c.412-.073.631.212.631.496a.527.527 0 0 1-.463.53c-.664.117-1.456.234-2.238.307-.262.431-.525.833-.781 1.172l.022.022zm5.939 3.444a.56.56 0 0 1 .569-.548c.117 0 .241.044.369.117.591.358 1.401 1.067 1.887 1.67a.76.76 0 0 1 .19.485c0 .34-.285.592-.614.592a.65.65 0 0 1-.518-.263c-.485-.592-1.128-1.235-1.646-1.615a.52.52 0 0 1-.241-.43zm10.497-.055c-.19.168-.464.263-.781.263-1.033 0-1.792-.697-1.792-1.899 0-1.034.653-1.753 1.635-1.753.223 0 .431.033.631.084l-.032-.844c-1.446.062-2.891.139-4.147.223-.38.022-.591-.296-.591-.603 0-.274.168-.548.536-.57 1.256-.073 2.723-.146 4.187-.212-.011-.38-.011-.803-.011-1.278 0-.34.296-.519.591-.519.296 0 .57.168.57.508v1.257a102 102 0 0 1 3.037-.052c.368 0 .547.285.547.581 0 .274-.179.559-.507.559-.927 0-1.971.033-3.059.062.011.614.033 1.213.073 1.826.234.38.358.866.358 1.403 0 1.67-.803 2.776-2.3 3.474a.7.7 0 0 1-.296.073.603.603 0 0 1-.591-.592c0-.212.117-.424.413-.548.832-.369 1.361-.928 1.551-1.435l-.033-.011zm-1.456-1.603c0 .519.379.833.726.833s.624-.252.624-.738-.285-.844-.737-.844c-.358 0-.613.285-.613.749m3.5-5.446c0-.212.201-.358.423-.358.157 0 .318.073.413.234.19.317.358.686.474 1.022a.4.4 0 0 1 .033.157c0 .252-.222.424-.452.424-.168 0-.336-.095-.413-.318a8 8 0 0 0-.431-.982.4.4 0 0 1-.043-.18zm1.383-.278c0-.212.201-.347.413-.347.146 0 .306.062.401.223.19.307.369.654.508.983a.5.5 0 0 1 .044.211c0 .252-.212.402-.424.402a.46.46 0 0 1-.423-.296 8 8 0 0 0-.464-.982.4.4 0 0 1-.051-.19zm8.779 5.936c0 1.647-1.234 2.809-3.595 3.145-.38.062-.592-.223-.592-.508 0-.223.139-.442.431-.497 2.004-.347 2.69-1.023 2.69-2.144 0-.676-.485-1.202-1.529-1.202s-2.449.347-3.997 1.034a.5.5 0 0 1-.252.051.494.494 0 0 1-.496-.497c0-.19.105-.39.357-.496 1.563-.687 3.143-1.056 4.388-1.056 1.54 0 2.595.833 2.595 2.162zm3.657-5.11c0-.38.307-.57.613-.57.307 0 .614.19.614.57 0 1.183.095 2.239.241 3.093a14 14 0 0 1 2.076-.821.6.6 0 0 1 .19-.033c.329 0 .548.296.548.591a.52.52 0 0 1-.391.52c-.938.295-1.993.726-2.774 1.223-.909.591-1.223 1.172-1.223 1.71 0 .653.431.993 2.11.993.843 0 1.592-.073 2.183-.19.452-.084.708.24.708.57a.58.58 0 0 1-.475.591c-.719.15-1.529.201-2.427.201-2.215 0-3.321-.675-3.321-2.1 0-.866.401-1.72 1.719-2.619-.234-1.012-.391-2.268-.391-3.726zm10.133 6.965c0 .983-.781 1.753-1.763 1.753a1.75 1.75 0 0 1-1.77-1.753c0-.982.792-1.742 1.77-1.742s1.763.76 1.763 1.742m-2.803 0c0 .592.452 1.045 1.044 1.045.591 0 1.033-.453 1.033-1.045s-.453-1.033-1.033-1.033a1.03 1.03 0 0 0-1.044 1.033" fill="#41393D"/>
    <path d="M24.47 4.686c1.446 0 2.8.581 3.815 1.637 1.018 1.059 1.576 2.476 1.576 3.988 0 3.748-2.066 6.568-4.183 9.14a77 77 0 0 1-1.299 1.519c-.077.088-.215-.015-.153-.113 1.179-1.852 2.036-3.912 2.036-6.374 0-1.6-.595-3.101-1.671-4.223a5.58 5.58 0 0 0-4.056-1.738q-.499 0-.981.069a.384.384 0 0 1-.402-.544c1.03-2.122 2.957-3.36 5.315-3.36" fill="#00A79D"/>
    <path d="M7.085.676c-2.694.928-4.848 2.882-6.063 5.5-1.22 2.627-1.354 5.63-.383 8.453C3.044 21.616 8.705 25.55 14.297 28.98c1.022.625 2.183 1.304 3.398 1.998.201.117.395-.164.212-.31-3.387-2.692-6.307-5.987-7.884-10.578-1.026-2.988-.883-6.162.409-8.946s3.58-4.861 6.446-5.848a13.5 13.5 0 0 1 1.872-.5c.592-.113.825-.84.398-1.268C15.871.23 11.487-.84 7.085.676" fill="#F15B5B"/>
    <path d="M18.758 9.508c1.445 0 2.8.58 3.814 1.636 1.018 1.06 1.577 2.477 1.577 3.989 0 3.748-2.066 6.567-4.183 9.139-.387.467-.832.986-1.3 1.52-.076.087-.215-.015-.153-.114 1.18-1.852 2.037-3.912 2.037-6.374 0-1.6-.595-3.1-1.672-4.222a5.58 5.58 0 0 0-4.055-1.739q-.498-.001-.982.07a.383.383 0 0 1-.401-.545c1.029-2.122 2.956-3.36 5.314-3.36" fill="#FAA61A"/>
  </g>
  <defs>
    <clipPath id="a">
      <path fill="#fff" d="M0 0h158.351v31H0z"/>
    </clipPath>
  </defs>
</svg>
