<svg xmlns="http://www.w3.org/2000/svg" width="412" height="81" fill="none">
  <g fill="#fff" clip-path="url(#a)">
    <path d="M127.257 43.712c3.524-.039 5.252 1.527 5.252 3.664 0 .926-.361 1.976-1.045 3.064-1.643 2.539-3.846 4.992-6.372 7.005-.56.44-1.159.65-1.681.65-1.206 0-2.165-1.003-2.165-2.215 0-.687.323-1.412 1.12-2.052 1.643-1.288 3.21-2.978 4.207-4.476.2-.286.285-.525.285-.725 0-.325-.285-.487-.921-.487l-22.773.162c-1.406 0-2.127-1.088-2.127-2.214s.721-2.214 2.127-2.214l24.093-.162Zm-13.305 9.429c0-1.327 1.159-2.014 2.327-2.014s2.327.687 2.327 2.014v1.89c0 8.58-3.771 14.946-10.58 19.097-.522.325-1.044.487-1.519.487-1.32 0-2.327-1.05-2.327-2.252 0-.764.437-1.575 1.481-2.215 5.49-3.34 8.301-8.055 8.301-15.108v-1.89l-.01-.009ZM149.166 61.196c0 1.327-1.158 1.976-2.326 1.976-1.168 0-2.327-.65-2.327-1.976v-7.005h-6.173c-1.206 0-1.842-1.012-1.842-2.014 0-1.002.645-2.014 1.842-2.014h6.173V43.56c0-1.374 1.159-2.014 2.327-2.014s2.326.65 2.326 2.014v6.604h9.06v-7.167c0-1.327 1.159-1.976 2.327-1.976s2.327.65 2.327 1.976v7.167h7.018c1.244 0 1.842 1.012 1.842 2.014 0 1.002-.598 2.014-1.842 2.014h-7.018v1.25c0 9.792-4.445 16.234-11.748 19.537a2.614 2.614 0 0 1-1.082.238c-1.32 0-2.242-1.088-2.242-2.252 0-.802.399-1.613 1.482-2.138 5.935-2.863 8.936-7.33 8.936-15.71v-.925h-9.06v7.005ZM183.155 54.744c5.214-1.45 10.542-3.626 14.55-6.04.484-.287.921-.402 1.358-.402a2.328 2.328 0 0 1 2.326 2.3c0 .688-.361 1.451-1.282 1.976-4.815 2.863-10.988 5.154-16.961 6.566v7.053c0 2.3 1.244 2.902 6.049 2.902 4.293 0 8.415-.325 11.786-1.088.199-.039.399-.077.598-.077 1.406 0 2.241 1.165 2.241 2.3 0 .926-.56 1.852-1.842 2.138-3.685.802-8.177 1.088-12.545 1.088-8.338 0-11.026-1.613-11.026-6.604V43.769c0-1.327 1.206-2.014 2.365-2.014 1.158 0 2.364.687 2.364 2.014v10.995l.019-.02ZM220.839 61.196c0 1.327-1.159 1.976-2.327 1.976s-2.327-.65-2.327-1.976v-7.005h-6.173c-1.206 0-1.842-1.012-1.842-2.014 0-1.002.646-2.014 1.842-2.014h6.173V43.56c0-1.374 1.159-2.014 2.327-2.014s2.327.65 2.327 2.014v6.604h9.06v-7.167c0-1.327 1.158-1.976 2.326-1.976 1.169 0 2.327.65 2.327 1.976v7.167h7.018c1.244 0 1.843 1.012 1.843 2.014 0 1.002-.599 2.014-1.843 2.014h-7.018v1.25c0 9.792-4.444 16.234-11.747 19.537a2.615 2.615 0 0 1-1.083.238c-1.32 0-2.241-1.088-2.241-2.252 0-.802.399-1.613 1.481-2.138 5.936-2.863 8.937-7.33 8.937-15.71v-.925h-9.06v7.005ZM257.572 49.791c.523.525.722 1.126.722 1.737 0 1.365-1.206 2.663-2.564 2.663-.598 0-1.244-.239-1.804-.802-1.805-1.813-3.685-3.503-5.452-4.877-.683-.525-.959-1.164-.959-1.813 0-1.25 1.159-2.453 2.564-2.453.523 0 1.045.162 1.605.525a36.015 36.015 0 0 1 5.888 5.04v-.02Zm17.636-1.164c1.244 0 2.441.887 2.441 2.214 0 .4-.124.85-.399 1.288-5.689 10.108-14.834 17.409-24.777 21.188-.399.162-.76.2-1.083.2-1.444 0-2.403-1.25-2.403-2.452 0-.888.437-1.728 1.567-2.138 9.098-3.465 17.797-10.432 22.612-19.06.485-.887 1.282-1.25 2.042-1.25v.01ZM303.29 46.69c3.324-.039 5.014 1.288 5.014 3.702 0 .65-.123 1.375-.361 2.138-2.763 9.392-9.62 17.886-18.357 22.8-.484.24-.921.364-1.32.364-1.32 0-2.289-1.088-2.289-2.3 0-.764.437-1.614 1.406-2.177 7.977-4.714 13.305-11.481 15.755-19.135.076-.2.124-.401.124-.563 0-.449-.323-.65-1.083-.65l-8.975.077c-1.965 2.901-4.245 5.602-6.533 7.654-.599.563-1.244.764-1.843.764-1.206 0-2.241-.926-2.241-2.138 0-.601.323-1.289 1.007-1.938 3.808-3.464 7.578-8.904 9.658-13.857.437-1.05 1.32-1.527 2.203-1.527 1.206 0 2.365.849 2.365 2.137 0 .287-.076.602-.2.926-.522 1.25-1.12 2.5-1.804 3.79l7.493-.077-.019.01ZM323.129 60.07c0 1.365-1.206 2.1-2.403 2.1-1.196 0-2.403-.726-2.403-2.1V44.236c0-1.412 1.207-2.137 2.403-2.137 1.197 0 2.403.725 2.403 2.138V60.07Zm10.579-16.52c0-1.375 1.206-2.053 2.441-2.053 1.159 0 2.365.688 2.365 2.052v11.968c0 10.193-4.331 16.359-12.071 20.062-.437.2-.845.325-1.206.325-1.367 0-2.365-1.165-2.365-2.377 0-.764.437-1.575 1.482-2.1 6.695-3.302 9.345-8.179 9.345-16.234V43.549h.009ZM378.011 55.67c1.443 0 2.165 1.126 2.165 2.3s-.722 2.3-2.165 2.3h-29.26c-1.443 0-2.165-1.164-2.165-2.3 0-1.135.722-2.3 2.165-2.3h29.26ZM391.924 49.791c.522.525.722 1.126.722 1.737 0 1.365-1.207 2.663-2.565 2.663-.598 0-1.244-.239-1.804-.802-1.804-1.813-3.685-3.503-5.451-4.877-.684-.525-.959-1.164-.959-1.813 0-1.25 1.158-2.453 2.564-2.453.522 0 1.044.162 1.605.525a36.098 36.098 0 0 1 5.888 5.04v-.02Zm17.635-1.164c1.244 0 2.441.887 2.441 2.214 0 .4-.123.85-.399 1.288-5.688 10.108-14.834 17.409-24.777 21.188-.399.162-.76.2-1.083.2-1.443 0-2.402-1.25-2.402-2.452 0-.888.437-1.728 1.567-2.138 9.098-3.465 17.797-10.432 22.612-19.06.484-.887 1.282-1.25 2.041-1.25v.01ZM102.746 9.525c.855 0 1.671.525 1.614 1.546-.057.859-.114 1.518-.114 2.51 0 9.65 1.947 12.188 3.106 12.188.655 0 1.234-.44 1.785-2.51.19-.83.798-1.184 1.396-1.184.798 0 1.567.582 1.567 1.49 0 .161 0 .305-.057.467-1.016 3.693-2.773 5.049-4.615 5.049-3.979 0-6.391-4.935-6.391-15.414 0-1.27.057-2.1.113-2.816.086-.887.855-1.326 1.596-1.326Zm20.693 11.691c.057.22.114.41.114.582 0 .907-.769 1.46-1.538 1.46-.579 0-1.178-.305-1.453-1.05-.988-2.538-2.773-5.43-4.748-7.5-.333-.335-.466-.688-.466-1.022 0-.773.741-1.403 1.567-1.403.38 0 .826.162 1.206.525 2.308 2.148 4.388 5.602 5.328 8.408h-.01ZM140.591 11.424c4.91 0 8.233 2.644 8.233 6.872 0 5.268-3.893 8.962-11.443 10.04-1.149.191-1.843-.658-1.843-1.546 0-.659.437-1.355 1.377-1.517 6.42-1.108 8.671-3.34 8.671-6.977 0-2.119-1.595-3.942-4.995-3.942-3.4 0-7.797 1.107-12.707 3.283a2.089 2.089 0 0 1-.798.163 1.517 1.517 0 0 1-1.538-1.518c0-.582.332-1.183 1.12-1.517 4.939-2.177 9.963-3.34 13.913-3.34h.01ZM161.978 11.672h.189a30.82 30.82 0 0 0 2.831-.133c.959-.086 1.453.687 1.453 1.46 0 .687-.38 1.355-1.178 1.403-.855.114-1.671.134-3.049.134h-.769c-.161 1.298-.389 2.567-.579 3.865h.437c1.453 0 3.077-.134 4.311-.363 1.016-.162 1.624.63 1.624 1.432 0 .658-.361 1.298-1.177 1.46-1.32.277-3.182.439-4.777.439h-.769a26.62 26.62 0 0 0-.114 2.396c0 2.977 1.234 3.998 3.646 3.998 3.02 0 4.635-1.078 4.635-3.808 0-.63-.133-1.402-.333-2.042a2.068 2.068 0 0 1-.057-.41c0-.83.77-1.327 1.567-1.327.684 0 1.377.363 1.615 1.184.275.858.408 1.708.408 2.538 0 4.715-3.181 7.006-7.797 7.006-4.283 0-6.837-2.205-6.837-6.92 0-.83.028-1.708.133-2.787-1.292-.133-2.365-.305-3.296-.553-.798-.22-1.149-.86-1.149-1.49 0-.772.522-1.517 1.396-1.517.162 0 .332 0 .494.058.855.22 1.785.381 2.906.524a90.34 90.34 0 0 1 .579-3.865 20.411 20.411 0 0 1-2.877-.439c-.826-.19-1.178-.801-1.178-1.374 0-.86.684-1.68 1.729-1.46.883.19 1.785.334 2.83.439l.683-3.97c.133-.802.855-1.156 1.567-1.156.855 0 1.7.554 1.51 1.575l-.626 3.694.019.01ZM176.156 20.882c0-6.29 5.186-11.443 12.735-11.443 6.696 0 10.57 4.219 10.57 9.706 0 4.992-2.934 8.657-7.654 10.174a1.715 1.715 0 0 1-.627.115c-.93 0-1.538-.773-1.538-1.575 0-.61.332-1.212 1.149-1.518 3.894-1.402 5.461-3.779 5.461-7.196 0-3.617-2.441-6.595-6.61-6.89-.276 4.58-1.396 8.713-3.106 11.72-1.51 2.672-3.124 3.474-5.242 3.474-2.802 0-5.128-2.262-5.128-6.567h-.01Zm3.163 0c0 2.539.987 3.474 1.975 3.474.855 0 1.596-.439 2.384-1.851 1.396-2.453 2.412-6.013 2.744-10.07-4.093.803-7.103 4.362-7.103 8.438v.01ZM221.314 19.613c-.333.859-.627 1.68-1.074 2.481a16.614 16.614 0 0 1-2.222 3.37 53.77 53.77 0 0 1 5.679 3.14c.523.333.741.801.741 1.24 0 .744-.627 1.489-1.424 1.489-.276 0-.58-.115-.884-.305a53.811 53.811 0 0 0-6.173-3.589c-2.801 2.233-6.476 3.617-11.168 4.19-1.073.133-1.643-.611-1.643-1.327 0-.63.409-1.24 1.263-1.355 3.619-.44 6.477-1.374 8.699-2.816a44.235 44.235 0 0 0-3.542-1.355l-.161.248c-.333.525-.827.745-1.292.745-.769 0-1.51-.582-1.51-1.298 0-.248.086-.497.247-.745.902-1.383 1.728-2.73 2.469-4.132h-6.04c-.684 0-1.045-.659-1.045-1.298 0-.64.361-1.298 1.045-1.298h7.332a76.636 76.636 0 0 0 1.51-3.694c.218-.582.74-.83 1.291-.83.741 0 1.51.468 1.51 1.184 0 .133 0 .248-.057.381a44.54 44.54 0 0 1-1.149 2.95h12.403c.712 0 1.073.63 1.073 1.297 0 .668-.361 1.298-1.073 1.298h-4.805v.029ZM213.108 7.12c0-.773.77-1.155 1.539-1.155.769 0 1.51.382 1.51 1.155v2.014h6.591c2.583 0 3.57.887 3.57 2.815v1.9c0 .801-.769 1.183-1.51 1.183-.74 0-1.538-.392-1.538-1.184v-1.431c0-.582-.247-.83-1.016-.83h-15.072c-.769 0-1.016.248-1.016.83v1.575c0 .801-.769 1.212-1.51 1.212s-1.538-.41-1.538-1.213V11.95c0-1.928.987-2.815 3.571-2.815h6.419V7.12Zm-.569 12.493c-.551 1.021-1.074 2.042-1.643 3.064 1.51.439 2.991.992 4.444 1.603 1.263-1.298 2.251-2.95 2.859-4.658h-5.651l-.009-.01ZM232.415 16.196c.77 0 1.567.525 1.567 1.403 0 .115-.028.248-.057.382-.579 2.29-1.453 4.552-2.469 6.098-.408.611-.959.888-1.481.888-.77 0-1.482-.553-1.482-1.355 0-.305.114-.63.333-.964.902-1.403 1.7-3.417 2.25-5.43.19-.716.77-1.022 1.349-1.022h-.01Zm3.353-2.405c0-.888.769-1.327 1.538-1.327s1.539.44 1.539 1.327v12.302c0 1.079.389 1.356 3.181 1.356 3.761 0 4.416-.41 4.72-2.673.114-.773.741-1.126 1.377-1.126.855 0 1.7.582 1.539 1.575-.656 3.999-2.365 4.934-7.522 4.934-5.518 0-6.372-1.021-6.372-3.445V13.79Zm8.366-3.913c.437.41.608.859.608 1.27 0 .858-.712 1.546-1.538 1.546-.361 0-.741-.115-1.102-.44a27.284 27.284 0 0 0-3.153-2.51c-.551-.362-.769-.859-.769-1.298 0-.744.627-1.431 1.481-1.431.304 0 .608.086.931.248 1.178.63 2.498 1.632 3.542 2.625v-.01Zm9.355 9.85c.218.362.332.687.332.992 0 .878-.769 1.546-1.595 1.546-.466 0-.959-.248-1.32-.801-.884-1.404-2.384-3.226-3.4-4.248-.361-.362-.494-.715-.494-1.078 0-.773.712-1.403 1.51-1.403.361 0 .741.134 1.102.439 1.291 1.126 2.906 3.006 3.874 4.552h-.009ZM263.394 16.301a6.525 6.525 0 0 1 2.365-.467c1.89 0 3.124.582 3.846 2.624a71.913 71.913 0 0 1 6.857-2.481c.19-.058.379-.086.55-.086.903 0 1.425.744 1.425 1.489 0 .582-.332 1.183-1.102 1.403-2.383.715-4.834 1.546-7.132 2.481.133 1.021.19 2.233.247 3.665.029.935-.769 1.431-1.567 1.431-.712 0-1.424-.41-1.453-1.269-.028-1.05-.085-1.928-.133-2.672-2.858 1.46-3.514 2.7-3.514 3.722 0 1.079.988 1.708 4.141 1.708 1.728 0 3.542-.162 5.328-.467 1.101-.191 1.785.63 1.785 1.489 0 .658-.437 1.326-1.377 1.489-1.785.334-3.818.439-5.622.439-5.185 0-7.379-1.738-7.379-4.439 0-2.204 1.291-4.332 6.173-6.785-.361-1.021-.931-1.241-1.919-1.241-.987 0-3.02.744-5.622 2.844-.332.248-.655.363-.987.363-.798 0-1.482-.687-1.482-1.46 0-.41.19-.83.627-1.212a25.753 25.753 0 0 0 4.634-5.383c-1.073.086-2.06.114-2.963.133-.987.029-1.51-.716-1.51-1.431 0-.716.494-1.403 1.51-1.403 1.292 0 2.83-.086 4.416-.191.466-1.107.884-2.176 1.207-3.197.218-.688.797-.993 1.396-.993.769 0 1.51.496 1.51 1.27 0 .133 0 .276-.057.41a21.564 21.564 0 0 1-.827 2.176 45.044 45.044 0 0 0 3.979-.554c1.074-.19 1.643.554 1.643 1.298 0 .611-.379 1.241-1.206 1.384-1.728.306-3.789.61-5.821.802-.684 1.126-1.368 2.176-2.033 3.063l.057.058.01-.01ZM278.845 25.301c0-.744.627-1.431 1.482-1.431.304 0 .627.114.959.305 1.538.935 3.647 2.787 4.91 4.362.361.439.494.878.494 1.269 0 .887-.741 1.546-1.596 1.546-.465 0-.959-.19-1.348-.687-1.263-1.546-2.935-3.226-4.283-4.219-.466-.334-.627-.744-.627-1.126l.009-.019ZM306.158 25.158c-.494.439-1.206.687-2.032.687-2.688 0-4.663-1.823-4.663-4.963 0-2.7 1.7-4.58 4.254-4.58.58 0 1.121.085 1.643.219l-.085-2.205a463.8 463.8 0 0 0-10.788.582c-.988.058-1.539-.773-1.539-1.575 0-.715.437-1.431 1.396-1.488 3.267-.191 7.085-.382 10.893-.554-.029-.993-.029-2.1-.029-3.34 0-.888.77-1.356 1.539-1.356.769 0 1.481.44 1.481 1.327v3.283c2.802-.086 5.518-.133 7.902-.133.959 0 1.424.744 1.424 1.517 0 .716-.465 1.46-1.32 1.46-2.412 0-5.128.086-7.958.162.028 1.604.085 3.17.19 4.773.608.992.931 2.261.931 3.664 0 4.362-2.09 7.254-5.983 9.077-.276.133-.523.19-.77.19-.883 0-1.538-.772-1.538-1.546 0-.553.304-1.107 1.073-1.431 2.165-.964 3.542-2.424 4.036-3.75l-.085-.03.028.01Zm-3.789-4.19c0 1.355.988 2.176 1.89 2.176.902 0 1.624-.658 1.624-1.928 0-1.269-.741-2.204-1.919-2.204-.93 0-1.595.744-1.595 1.956Zm9.107-14.23c0-.553.523-.935 1.102-.935.408 0 .826.19 1.073.61.494.83.931 1.795 1.235 2.673.057.134.085.277.085.41 0 .659-.579 1.107-1.177 1.107-.437 0-.874-.248-1.074-.83a20.98 20.98 0 0 0-1.12-2.567 1.015 1.015 0 0 1-.114-.468h-.01Zm3.6-.725c0-.554.522-.907 1.073-.907.38 0 .797.162 1.044.582.494.802.96 1.709 1.32 2.568.086.19.114.381.114.553 0 .659-.55 1.05-1.101 1.05-.437 0-.883-.248-1.102-.773a21.365 21.365 0 0 0-1.206-2.567 1.086 1.086 0 0 1-.133-.497l-.009-.01ZM337.915 21.522c0 4.304-3.21 7.34-9.354 8.217-.988.162-1.538-.582-1.538-1.326 0-.583.36-1.155 1.12-1.299 5.214-.906 6.999-2.672 6.999-5.602 0-1.765-1.263-3.14-3.979-3.14s-6.372.907-10.399 2.701c-.218.115-.437.134-.655.134a1.29 1.29 0 0 1-1.292-1.298c0-.496.276-1.021.931-1.298 4.065-1.794 8.177-2.758 11.415-2.758 4.008 0 6.752 2.176 6.752 5.65v.019ZM347.431 8.17c0-.993.798-1.49 1.596-1.49.797 0 1.595.497 1.595 1.49 0 3.092.247 5.85.627 8.083a36.423 36.423 0 0 1 5.404-2.147c.161-.057.332-.086.493-.086.855 0 1.425.773 1.425 1.546 0 .582-.304 1.126-1.016 1.356-2.441.773-5.185 1.899-7.218 3.197-2.364 1.546-3.181 3.063-3.181 4.466 0 1.709 1.12 2.596 5.489 2.596 2.194 0 4.141-.19 5.679-.496 1.178-.22 1.842.63 1.842 1.489 0 .687-.379 1.355-1.234 1.546-1.871.391-3.979.525-6.316.525-5.764 0-8.642-1.766-8.642-5.488 0-2.262 1.045-4.495 4.473-6.843-.607-2.644-1.016-5.927-1.016-9.735v-.01ZM373.794 26.37c0 2.567-2.032 4.581-4.587 4.581-2.554 0-4.606-2.014-4.606-4.58 0-2.568 2.061-4.553 4.606-4.553 2.546 0 4.587 1.985 4.587 4.552Zm-7.293 0c0 1.546 1.177 2.73 2.716 2.73 1.538 0 2.687-1.184 2.687-2.73s-1.177-2.7-2.687-2.7c-1.51 0-2.716 1.183-2.716 2.7ZM63.667 12.245c3.76 0 7.284 1.518 9.924 4.276 2.65 2.767 4.102 6.47 4.102 10.422 0 9.792-5.375 17.16-10.883 23.879a189.576 189.576 0 0 1-3.38 3.97c-.2.23-.561-.038-.4-.296 3.068-4.839 5.3-10.221 5.3-16.654 0-4.18-1.548-8.103-4.35-11.033-2.802-2.93-6.553-4.543-10.551-4.543-.864 0-1.719.057-2.555.182a1.001 1.001 0 0 1-1.044-1.422c2.678-5.546 7.692-8.781 13.827-8.781"/>
    <path d="M18.433 1.766C11.425 4.19 5.822 9.296 2.66 16.139-.513 23-.864 30.846 1.662 38.224 7.92 56.48 22.65 66.76 37.199 75.722c2.66 1.632 5.68 3.407 8.842 5.22.522.306 1.025-.429.55-.81-8.813-7.034-16.41-15.643-20.513-27.64-2.668-7.807-2.298-16.1 1.064-23.373s9.316-12.703 16.771-15.28a35.065 35.065 0 0 1 4.872-1.308c1.539-.296 2.146-2.195 1.035-3.311C41.292.6 29.887-2.195 18.433 1.766Z"/>
    <path d="M48.804 24.843c3.76 0 7.284 1.517 9.924 4.276 2.65 2.768 4.103 6.47 4.103 10.422 0 9.792-5.375 17.16-10.884 23.879a189.327 189.327 0 0 1-3.38 3.97c-.2.23-.56-.038-.4-.296 3.068-4.838 5.3-10.221 5.3-16.654 0-4.18-1.548-8.103-4.35-11.033-2.801-2.93-6.552-4.543-10.55-4.543-.865 0-1.72.058-2.555.182-.788.114-1.387-.697-1.045-1.422 2.678-5.546 7.693-8.781 13.828-8.781"/>
  </g>
  <defs>
    <clipPath id="a">
      <path fill="#fff" d="M0 0h412v81H0z"/>
    </clipPath>
  </defs>
</svg>
